# xmcd
#
# Track frame offsets:
#	150
#	12709
#	27225
#	45021
#	61357
#	78064
#	92494
#	108509
#	122978
#	143019
#	156965
#	173707
#	187512
#	202026
#	217990
#
# Disc length: 3069 seconds
#
# Revision: 1
# Processed by: cddbd v1.5.2PL0 Copyright (c) Steve Scherf et al.
# Submitted via: audiograbber 1.83.01
#
DISCID=ba0bfb0f
DTITLE=Blake Shelton - If I'm Honest
DYEAR=2016
DGENRE=Country
TTITLE0=Straight Outta Cold Beer
TTITLE1=She's Got a Way With Words
TTITLE2=Bet You Still Think About Me
TTITLE3=Every Time I Hear That Song
TTITLE4=Came Here to Forget
TTITLE5=Every Goodbye
TTITLE6=It Ain't Easy
TTITLE7=A Guy With a Girl
TTITLE8=Go Ahead and Break My Heart (feat. Gwen Stefani)
TTITLE9=Friends (From the Angry Birds Movie)
TTITLE10=One Night Girl
TTITLE11=Doing It to Country Songs (feat. The Oak Ridge Boys)
TTITLE12=Green
TTITLE13=You Can't Make This Up
TTITLE14=Savior's Shadow
EXTD=
EXTT0=
EXTT1=
EXTT2=
EXTT3=
EXTT4=
EXTT5=
EXTT6=
EXTT7=
EXTT8=
EXTT9=
EXTT10=
EXTT11=
EXTT12=
EXTT13=
EXTT14=
PLAYORDER=
